<svg data-v-423bf9ae="" xmlns="http://www.w3.org/2000/svg" viewBox="0 0 337 90" class="iconLeftSlogan"><!----><!----><!----><g data-v-423bf9ae="" id="57e0ddb1-625a-49ae-af01-9cbbfc32f864" fill="white" transform="matrix(5.870841333886128,0,0,5.870841333886128,118.52710996192634,-26.2426618533176)"><path d="M9.24 13.79L8.37 13.65L7.83 12.46L4.94 4.54L4.13 4.68L1.62 12.31L1.02 13.69L0.14 13.93L0.20 14.62C0.20 14.62 1.57 14.55 2.09 14.55L3.29 14.55L3.36 13.79L2.38 13.65L2.52 12.77L2.97 11.30L6.05 11.30L6.34 12.14L6.72 13.65L5.70 13.93L5.75 14.62C5.75 14.62 7.32 14.55 7.76 14.55L9.17 14.55ZM4.45 6.75L5.77 10.54L3.22 10.60ZM11.93 7.88L11.66 7.63L11.16 7.63C10.88 7.63 9.87 7.57 9.87 7.57L9.80 8.32L10.86 8.54C10.86 8.54 11.00 9.32 11.00 9.60L11.00 12.63C11.00 12.91 10.86 13.69 10.86 13.69L9.80 13.92L9.87 14.62C9.87 14.62 11.14 14.55 11.42 14.55C12.54 14.55 13.51 14.62 13.51 14.62L13.61 13.79L12.24 13.69C12.24 13.69 12.14 12.91 12.14 12.21L12.14 10.57C12.19 9.25 12.73 8.48 14.01 8.47L14.07 8.47C14.17 8.76 14.27 9.09 14.27 9.17L14.27 9.91L15.08 9.95L15.22 7.64C15.22 7.64 14.78 7.50 14.27 7.50C13.26 7.50 12.56 7.91 12.01 8.81ZM19.24 13.79L18.14 13.69C18.14 13.69 18.05 12.91 18.05 12.21L18.05 10.02C18.05 9.32 18.14 7.88 18.14 7.88L17.88 7.63L17.07 7.63C16.79 7.63 15.78 7.57 15.78 7.57L15.71 8.32L16.77 8.54C16.77 8.54 16.91 9.32 16.91 9.60L16.91 12.63C16.91 12.91 16.77 13.69 16.77 13.69L15.71 13.92L15.78 14.62C15.78 14.62 17.05 14.55 17.33 14.55C18.45 14.55 19.14 14.62 19.14 14.62ZM17.49 4.47C16.95 4.47 16.66 4.84 16.66 5.38C16.66 5.91 16.95 6.27 17.49 6.27C18.02 6.27 18.31 5.91 18.31 5.38C18.31 4.80 18.00 4.47 17.49 4.47ZM22.36 7.50C21.06 7.50 20.09 8.19 20.09 9.37C20.09 11.63 23.63 11.44 23.63 12.91C23.63 13.65 23.14 13.97 22.36 13.97C21.91 13.97 21.50 13.89 21.18 13.64C21.07 13.31 20.97 12.95 20.97 12.81L20.97 12.28L20.16 12.24L20.01 14.14C20.01 14.14 20.93 14.69 22.32 14.69C23.84 14.69 24.78 14.11 24.78 12.64C24.78 10.43 21.21 10.57 21.21 9.14C21.21 8.57 21.66 8.23 22.34 8.23C22.74 8.23 22.99 8.27 23.28 8.40C23.38 8.72 23.48 9.06 23.48 9.20L23.48 9.70L24.29 9.74L24.46 7.74C23.79 7.60 23.03 7.50 22.36 7.50ZM29.72 13.38C29.72 13.38 29.12 13.79 28.62 13.79C28.10 13.79 27.86 13.40 27.86 12.70L27.86 8.39L29.75 8.39L29.82 7.63L27.86 7.63L27.86 6.19L27.37 6.13C27.37 6.13 26.84 7.25 26.73 7.39C26.40 7.59 26.07 7.64 25.61 7.80L25.65 8.39L26.73 8.39L26.73 12.36C26.73 13.90 27.13 14.69 28.46 14.69C29.16 14.69 29.67 14.31 30.11 13.96ZM35.22 14.55C36.34 14.55 37.03 14.62 37.03 14.62L37.13 13.79L36.16 13.69C36.16 13.69 36.02 12.91 36.02 12.21L36.02 10.47C36.02 8.33 35.38 7.50 33.71 7.50C32.87 7.50 32.02 7.62 31.18 7.84L31.33 9.74L32.14 9.70L32.14 9.13L32.24 8.54C32.59 8.37 33.11 8.26 33.57 8.26C34.45 8.26 34.89 8.89 34.89 10.19L34.89 10.65L32.65 11.03C31.39 11.24 30.77 11.89 30.77 12.89C30.77 13.99 31.56 14.69 32.80 14.69C33.71 14.69 34.66 14.15 35.03 13.44ZM34.89 11.37L34.89 12.21C34.75 13.12 33.96 13.79 33.03 13.79C32.37 13.79 32.00 13.38 32.00 12.68C32.00 12.19 32.33 11.84 32.89 11.75Z"></path></g><!----><g data-v-423bf9ae="" id="51f244e7-fcc8-4d6e-87f6-2bd5a9cb855f" transform="matrix(2.327814864553268,0,0,2.327814864553268,-65.73094537619612,-70.72266627047358)" stroke="none" fill="white"><path d="M67.407 34.597a13.32 13.32 0 0 0-9.488-3.928c-2.893 0-5.637.924-7.922 2.605a13.272 13.272 0 0 0-7.918-2.605 13.323 13.323 0 0 0-9.488 3.928 13.332 13.332 0 0 0-3.93 9.49c0 3.583 1.396 6.954 3.93 9.488l14.592 14.593a3.99 3.99 0 0 0 5.633 0l14.592-14.593a13.33 13.33 0 0 0 3.932-9.488 13.33 13.33 0 0 0-3.933-9.49zm-32.695 2.121a10.346 10.346 0 0 1 7.367-3.049c2.027 0 3.961.584 5.625 1.658l-8.242 8.242c-1.182 1.18-1.096 2.918.213 4.227l.002.001c.197.197.418.377.65.54l-3.672 3.671c-.24.241-.432.512-.596.793l-1.348-1.347c-4.062-4.063-4.062-10.673.001-14.736zm30.574 14.736l-14.59 14.591a.985.985 0 0 1-1.68-.694.983.983 0 0 1 .289-.692l7.213-7.215a1.5 1.5 0 1 0-2.121-2.121l-7.211 7.213a.984.984 0 0 1-1.389 0l-.002-.001a.977.977 0 0 1 0-1.386l7.213-7.213a1.5 1.5 0 1 0-2.121-2.121l-7.213 7.213a.983.983 0 0 1-1.389-1.388l7.213-7.214a1.5 1.5 0 1 0-2.121-2.121l-7.213 7.213a.982.982 0 0 1-1.389-1.388l4.818-4.818c1.301-.033 2.645-.526 3.768-1.646l2.887-2.889c1.291 1.018 2.643 1.639 3.967 1.817 1.916.255 3.711-.391 5.191-1.874a1.5 1.5 0 1 0-2.123-2.12c-.816.818-1.689 1.151-2.67 1.02-1.057-.14-2.221-.819-3.365-1.964-.279-.281-.662-.439-1.061-.439s-.779.157-1.061.439l-3.885 3.888c-.898.895-1.881.817-2.387.693-.609-.151-1.002-.465-1.154-.663l8.852-8.853a10.35 10.35 0 0 1 7.365-3.051c2.785 0 5.4 1.082 7.367 3.049 4.067 4.062 4.067 10.672.002 14.735z"></path></g><!----><g data-v-423bf9ae="" id="cd48caeb-1b7c-4173-a71e-e65099da90bf" fill="white" transform="matrix(0.4779628573360607,0,0,0.4779628573360607,119.17695924524686,57.27083248643668)"><path d="M4.40 6.98L3.04 10.75L5.72 10.75L4.40 6.98ZM3.08 14.40L0.36 14.40L0.39 14.11L1.36 13.90L4.35 5.82L4.72 5.73L7.55 13.95L8.46 14.08L8.40 14.39L5.61 14.39L5.67 14.10L6.80 13.90L5.85 11.13L2.90 11.13L1.89 13.95L3.14 14.08L3.08 14.40ZM22.31 14.40L16.16 14.40L16.19 14.11L17.35 13.90L17.35 6.34L16.17 6.17L16.20 5.90L19.31 5.90L19.28 6.17L18.08 6.32L18.08 14.03L21.70 14.03L22.23 12.09L22.53 12.14L22.31 14.40ZM31.06 6.34L30.22 6.15L30.27 5.89L32.96 5.89L32.94 6.11L31.81 6.32L33.76 13.18L35.81 6.18L36.12 6.14L38.06 13.18L40.27 6.36L38.99 6.13L39.03 5.89L41.64 5.89L41.62 6.14L40.82 6.34L38.12 14.49L37.68 14.57L35.85 7.63L33.83 14.49L33.35 14.57L31.06 6.34ZM53.40 6.98L52.04 10.75L54.72 10.75L53.40 6.98ZM52.08 14.40L49.36 14.40L49.39 14.11L50.36 13.90L53.35 5.82L53.72 5.73L56.55 13.95L57.46 14.08L57.40 14.39L54.61 14.39L54.67 14.10L55.80 13.90L54.85 11.13L51.90 11.13L50.89 13.95L52.14 14.08L52.08 14.40ZM66.08 6.35L65.13 6.15L65.16 5.90L68.01 5.90L67.98 6.15L66.85 6.32L68.99 10.49L71.11 6.34L69.84 6.14L69.86 5.89L72.52 5.89L72.50 6.14L71.62 6.32L69.23 11.05L69.23 13.94L70.47 14.08L70.42 14.40L67.27 14.40L67.31 14.11L68.51 13.90L68.51 11.05L66.08 6.35ZM80.23 13.60L80.23 13.60L80.44 11.66L80.77 11.71L80.96 13.21L80.96 13.21Q81.18 13.64 81.71 13.89L81.71 13.89L81.71 13.89Q82.24 14.14 82.84 14.14L82.84 14.14L82.84 14.14Q83.53 14.14 84.01 13.74L84.01 13.74L84.01 13.74Q84.49 13.33 84.49 12.61L84.49 12.61L84.49 12.61Q84.49 12.20 84.27 11.83L84.27 11.83L84.27 11.83Q84.05 11.46 83.71 11.18L83.71 11.18L83.71 11.18Q83.36 10.90 82.94 10.63L82.94 10.63L82.94 10.63Q82.52 10.36 82.11 10.07L82.11 10.07L82.11 10.07Q81.69 9.79 81.34 9.48L81.34 9.48L81.34 9.48Q81.00 9.17 80.78 8.75L80.78 8.75L80.78 8.75Q80.57 8.33 80.57 7.84L80.57 7.84L80.57 7.84Q80.57 6.88 81.26 6.29L81.26 6.29L81.26 6.29Q81.96 5.71 82.84 5.71L82.84 5.71L82.84 5.71Q83.43 5.71 83.97 5.90L83.97 5.90L83.97 5.90Q84.51 6.09 84.83 6.46L84.83 6.46L84.61 8.58L84.29 8.53L84.11 6.87L84.11 6.87Q83.92 6.54 83.51 6.32L83.51 6.32L83.51 6.32Q83.09 6.10 82.66 6.10L82.66 6.10L82.66 6.10Q82.07 6.10 81.65 6.48L81.65 6.48L81.65 6.48Q81.24 6.87 81.24 7.52L81.24 7.52L81.24 7.52Q81.24 7.96 81.46 8.35L81.46 8.35L81.46 8.35Q81.68 8.74 82.03 9.03L82.03 9.03L82.03 9.03Q82.39 9.32 82.81 9.61L82.81 9.61L82.81 9.61Q83.23 9.89 83.66 10.17L83.66 10.17L83.66 10.17Q84.09 10.45 84.44 10.75L84.44 10.75L84.44 10.75Q84.79 11.05 85.02 11.45L85.02 11.45L85.02 11.45Q85.24 11.85 85.24 12.29L85.24 12.29L85.24 12.29Q85.24 13.28 84.49 13.93L84.49 13.93L84.49 13.93Q83.73 14.57 82.49 14.57L82.49 14.57L82.49 14.57Q81.78 14.57 81.18 14.30L81.18 14.30L81.18 14.30Q80.58 14.03 80.23 13.60ZM102.89 10.25L102.89 10.25L102.89 10.25Q102.89 9.73 103.00 9.21L103.00 9.21L103.00 9.21Q103.11 8.68 103.31 8.17L103.31 8.17L103.31 8.17Q103.51 7.66 103.84 7.22L103.84 7.22L103.84 7.22Q104.17 6.77 104.58 6.44L104.58 6.44L104.58 6.44Q104.99 6.10 105.55 5.90L105.55 5.90L105.55 5.90Q106.11 5.71 106.74 5.71L106.74 5.71L106.74 5.71Q108.16 5.71 109.07 6.39L109.07 6.39L108.86 8.70L108.53 8.64L108.33 6.87L108.33 6.87Q107.73 6.09 106.42 6.09L106.42 6.09L106.42 6.09Q105.27 6.09 104.45 7.19L104.45 7.19L104.45 7.19Q103.62 8.30 103.62 10.00L103.62 10.00L103.62 10.00Q103.62 11.92 104.42 12.97L104.42 12.97L104.42 12.97Q105.23 14.03 106.70 14.03L106.70 14.03L106.70 14.03Q107.43 14.03 108.12 13.65L108.12 13.65L108.12 13.65Q108.81 13.28 109.29 12.74L109.29 12.74L109.44 12.99L109.44 12.99Q109.27 13.25 108.99 13.51L108.99 13.51L108.99 13.51Q108.70 13.77 108.31 14.02L108.31 14.02L108.31 14.02Q107.93 14.27 107.42 14.42L107.42 14.42L107.42 14.42Q106.91 14.57 106.39 14.57L106.39 14.57L106.39 14.57Q104.82 14.57 103.85 13.40L103.85 13.40L103.85 13.40Q102.89 12.22 102.89 10.25ZM121.18 6.98L119.81 10.75L122.50 10.75L121.18 6.98ZM119.86 14.40L117.13 14.40L117.17 14.11L118.14 13.90L121.13 5.82L121.50 5.73L124.33 13.95L125.23 14.08L125.18 14.39L122.38 14.39L122.45 14.10L123.58 13.90L122.63 11.13L119.68 11.13L118.67 13.95L119.92 14.08L119.86 14.40ZM134.74 6.18L134.74 10.11L136.29 10.11L136.29 10.11Q136.98 9.86 137.44 9.28L137.44 9.28L137.44 9.28Q137.89 8.70 137.89 8.02L137.89 8.02L137.89 8.02Q137.89 7.11 137.28 6.63L137.28 6.63L137.28 6.63Q136.66 6.15 135.57 6.15L135.57 6.15L134.74 6.18ZM136.12 14.40L132.92 14.40L132.97 14.11L134.04 13.90L134.04 6.51L132.95 6.37L133.01 6.13L133.01 6.13Q134.83 5.83 135.91 5.83L135.91 5.83L135.91 5.83Q136.68 5.83 137.29 6.05L137.29 6.05L137.29 6.05Q137.89 6.27 138.27 6.73L138.27 6.73L138.27 6.73Q138.65 7.19 138.65 7.83L138.65 7.83L138.65 7.83Q138.65 8.57 138.22 9.14L138.22 9.14L138.22 9.14Q137.79 9.72 136.76 10.23L136.76 10.23L136.76 10.23L138.08 12.19L138.08 12.19Q138.79 13.23 139.14 13.58L139.14 13.58L139.14 13.58Q139.48 13.92 139.86 14.05L139.86 14.05L140.19 14.16L140.15 14.42L140.15 14.42Q139.86 14.52 139.51 14.52L139.51 14.52L139.51 14.52Q139.23 14.52 138.97 14.40L138.97 14.40L138.97 14.40Q138.72 14.28 138.48 14.01L138.48 14.01L138.48 14.01Q138.24 13.75 138.05 13.48L138.05 13.48L138.05 13.48Q137.87 13.22 137.59 12.77L137.59 12.77L136.21 10.49L134.74 10.49L134.74 13.95L136.19 14.08L136.12 14.40ZM149.04 6.33L147.86 6.16L147.90 5.89L151.03 5.89L150.98 6.16L149.78 6.32L149.78 13.95L151.10 14.08L151.04 14.40L147.93 14.40L147.96 14.11L149.04 13.90L149.04 6.33ZM160.06 6.36L158.79 6.14L158.85 5.89L160.92 5.89L165.64 13.17L165.64 6.33L164.39 6.16L164.43 5.89L167.33 5.89L167.28 6.16L166.14 6.32L166.14 14.44L165.77 14.52L160.56 6.65L160.56 13.95L161.82 14.08L161.75 14.40L158.87 14.40L158.92 14.11L160.06 13.90L160.06 6.36ZM175.04 10.27L175.04 10.27L175.04 10.27Q175.04 9.64 175.21 9.00L175.21 9.00L175.21 9.00Q175.38 8.36 175.73 7.78L175.73 7.78L175.73 7.78Q176.08 7.21 176.56 6.75L176.56 6.75L176.56 6.75Q177.04 6.30 177.70 6.04L177.70 6.04L177.70 6.04Q178.37 5.77 179.13 5.77L179.13 5.77L179.13 5.77Q179.87 5.77 180.57 5.94L180.57 5.94L180.57 5.94Q181.28 6.11 181.75 6.47L181.75 6.47L181.54 8.64L181.23 8.61L181.02 6.99L181.02 6.99Q180.76 6.65 180.21 6.41L180.21 6.41L180.21 6.41Q179.66 6.17 178.90 6.17L178.90 6.17L178.90 6.17Q177.50 6.17 176.66 7.27L176.66 7.27L176.66 7.27Q175.82 8.37 175.82 10.07L175.82 10.07L175.82 10.07Q175.82 10.69 175.93 11.25L175.93 11.25L175.93 11.25Q176.04 11.81 176.29 12.34L176.29 12.34L176.29 12.34Q176.54 12.87 176.92 13.25L176.92 13.25L176.92 13.25Q177.30 13.63 177.89 13.86L177.89 13.86L177.89 13.86Q178.48 14.09 179.21 14.09L179.21 14.09L179.21 14.09Q180.27 14.09 180.99 13.59L180.99 13.59L181.00 11.03L179.35 10.86L179.40 10.60L182.68 10.60L182.63 10.86L181.71 11.01L181.71 13.86L181.71 13.86Q181.06 14.25 180.33 14.39L180.33 14.39L180.33 14.39Q179.59 14.53 178.50 14.53L178.50 14.53L178.50 14.53Q177.80 14.53 177.16 14.23L177.16 14.23L177.16 14.23Q176.53 13.93 176.06 13.39L176.06 13.39L176.06 13.39Q175.59 12.85 175.32 12.04L175.32 12.04L175.32 12.04Q175.04 11.23 175.04 10.27ZM190.46 13.92L190.46 13.92L190.46 13.92Q190.46 13.25 190.89 13.25L190.89 13.25L190.89 13.25Q191.32 13.25 191.32 13.92L191.32 13.92L191.32 13.92Q191.32 14.62 190.89 14.62L190.89 14.62L190.89 14.62Q190.46 14.62 190.46 13.92ZM213.07 6.98L211.70 10.75L214.39 10.75L213.07 6.98ZM211.75 14.40L209.02 14.40L209.06 14.11L210.03 13.90L213.02 5.82L213.38 5.73L216.22 13.95L217.12 14.08L217.07 14.39L214.27 14.39L214.33 14.10L215.47 13.90L214.52 11.13L211.57 11.13L210.55 13.95L211.81 14.08L211.75 14.40ZM230.98 14.40L224.83 14.40L224.86 14.11L226.02 13.90L226.02 6.34L224.84 6.17L224.87 5.90L227.98 5.90L227.95 6.17L226.75 6.32L226.75 14.03L230.37 14.03L230.90 12.09L231.20 12.14L230.98 14.40ZM239.72 6.34L238.89 6.15L238.94 5.89L241.62 5.89L241.60 6.11L240.47 6.32L242.43 13.18L244.47 6.18L244.79 6.14L246.72 13.18L248.94 6.36L247.66 6.13L247.69 5.89L250.31 5.89L250.29 6.14L249.48 6.34L246.79 14.49L246.35 14.57L244.51 7.63L242.50 14.49L242.01 14.57L239.72 6.34ZM262.07 6.98L260.70 10.75L263.39 10.75L262.07 6.98ZM260.75 14.40L258.02 14.40L258.06 14.11L259.03 13.90L262.02 5.82L262.38 5.73L265.22 13.95L266.12 14.08L266.07 14.39L263.27 14.39L263.33 14.10L264.47 13.90L263.52 11.13L260.57 11.13L259.55 13.95L260.81 14.08L260.75 14.40ZM274.75 6.35L273.80 6.15L273.83 5.90L276.68 5.90L276.65 6.15L275.52 6.32L277.66 10.49L279.77 6.34L278.51 6.14L278.52 5.89L281.19 5.89L281.17 6.14L280.29 6.32L277.90 11.05L277.90 13.94L279.14 14.08L279.08 14.40L275.94 14.40L275.98 14.11L277.18 13.90L277.18 11.05L274.75 6.35ZM288.90 13.60L288.90 13.60L289.11 11.66L289.43 11.71L289.63 13.21L289.63 13.21Q289.85 13.64 290.38 13.89L290.38 13.89L290.38 13.89Q290.91 14.14 291.51 14.14L291.51 14.14L291.51 14.14Q292.20 14.14 292.67 13.74L292.67 13.74L292.67 13.74Q293.15 13.33 293.15 12.61L293.15 12.61L293.15 12.61Q293.15 12.20 292.94 11.83L292.94 11.83L292.94 11.83Q292.72 11.46 292.38 11.18L292.38 11.18L292.38 11.18Q292.03 10.90 291.61 10.63L291.61 10.63L291.61 10.63Q291.19 10.36 290.77 10.07L290.77 10.07L290.77 10.07Q290.36 9.79 290.01 9.48L290.01 9.48L290.01 9.48Q289.67 9.17 289.45 8.75L289.45 8.75L289.45 8.75Q289.24 8.33 289.24 7.84L289.24 7.84L289.24 7.84Q289.24 6.88 289.93 6.29L289.93 6.29L289.93 6.29Q290.62 5.71 291.50 5.71L291.50 5.71L291.50 5.71Q292.09 5.71 292.63 5.90L292.63 5.90L292.63 5.90Q293.17 6.09 293.50 6.46L293.50 6.46L293.28 8.58L292.96 8.53L292.78 6.87L292.78 6.87Q292.59 6.54 292.17 6.32L292.17 6.32L292.17 6.32Q291.76 6.10 291.33 6.10L291.33 6.10L291.33 6.10Q290.73 6.10 290.32 6.48L290.32 6.48L290.32 6.48Q289.91 6.87 289.91 7.52L289.91 7.52L289.91 7.52Q289.91 7.96 290.13 8.35L290.13 8.35L290.13 8.35Q290.35 8.74 290.70 9.03L290.70 9.03L290.70 9.03Q291.05 9.32 291.48 9.61L291.48 9.61L291.48 9.61Q291.90 9.89 292.33 10.17L292.33 10.17L292.33 10.17Q292.76 10.45 293.11 10.75L293.11 10.75L293.11 10.75Q293.46 11.05 293.68 11.45L293.68 11.45L293.68 11.45Q293.90 11.85 293.90 12.29L293.90 12.29L293.90 12.29Q293.90 13.28 293.15 13.93L293.15 13.93L293.15 13.93Q292.40 14.57 291.16 14.57L291.16 14.57L291.16 14.57Q290.45 14.57 289.84 14.30L289.84 14.30L289.84 14.30Q289.24 14.03 288.90 13.60ZM312.76 6.33L311.53 6.16L311.55 5.89L314.67 5.89L314.63 6.16L313.48 6.32L313.48 9.95L318.38 9.95L318.38 6.33L317.13 6.16L317.17 5.89L320.28 5.89L320.23 6.16L319.09 6.32L319.09 13.95L320.34 14.08L320.29 14.40L317.19 14.40L317.25 14.11L318.38 13.90L318.38 10.36L313.48 10.36L313.48 13.95L314.75 14.08L314.67 14.40L311.58 14.40L311.62 14.11L312.76 13.90L312.76 6.33ZM329.27 6.36L328.05 6.18L328.10 5.89L334.29 5.89L334.08 8.07L333.76 8.03L333.63 6.24L329.98 6.24L329.98 9.89L332.27 9.89L332.53 8.94L332.90 8.89L332.67 11.55L332.32 11.61L332.21 10.26L329.98 10.26L329.98 14.03L333.83 14.03L334.33 12.19L334.61 12.26L334.41 14.40L328.07 14.40L328.11 14.11L329.27 13.90L329.27 6.36ZM344.14 6.18L344.14 10.11L345.69 10.11L345.69 10.11Q346.38 9.86 346.83 9.28L346.83 9.28L346.83 9.28Q347.29 8.70 347.29 8.02L347.29 8.02L347.29 8.02Q347.29 7.11 346.67 6.63L346.67 6.63L346.67 6.63Q346.06 6.15 344.97 6.15L344.97 6.15L344.14 6.18ZM345.52 14.40L342.32 14.40L342.37 14.11L343.44 13.90L343.44 6.51L342.34 6.37L342.41 6.13L342.41 6.13Q344.23 5.83 345.31 5.83L345.31 5.83L345.31 5.83Q346.08 5.83 346.68 6.05L346.68 6.05L346.68 6.05Q347.29 6.27 347.67 6.73L347.67 6.73L347.67 6.73Q348.04 7.19 348.04 7.83L348.04 7.83L348.04 7.83Q348.04 8.57 347.62 9.14L347.62 9.14L347.62 9.14Q347.19 9.72 346.16 10.23L346.16 10.23L346.16 10.23L347.48 12.19L347.48 12.19Q348.19 13.23 348.53 13.58L348.53 13.58L348.53 13.58Q348.88 13.92 349.26 14.05L349.26 14.05L349.59 14.16L349.55 14.42L349.55 14.42Q349.25 14.52 348.91 14.52L348.91 14.52L348.91 14.52Q348.63 14.52 348.37 14.40L348.37 14.40L348.37 14.40Q348.12 14.28 347.88 14.01L347.88 14.01L347.88 14.01Q347.63 13.75 347.45 13.48L347.45 13.48L347.45 13.48Q347.27 13.22 346.99 12.77L346.99 12.77L345.60 10.49L344.14 10.49L344.14 13.95L345.58 14.08L345.52 14.40ZM358.50 6.36L357.28 6.18L357.33 5.89L363.52 5.89L363.31 8.07L363.00 8.03L362.87 6.24L359.21 6.24L359.21 9.89L361.50 9.89L361.76 8.94L362.13 8.89L361.90 11.55L361.55 11.61L361.44 10.26L359.21 10.26L359.21 14.03L363.06 14.03L363.56 12.19L363.84 12.26L363.64 14.40L357.30 14.40L357.34 14.11L358.50 13.90L358.50 6.36Z"></path></g></svg>