<svg data-v-423bf9ae="" xmlns="http://www.w3.org/2000/svg" viewBox="0 0 217.16243079446014 60" class="font"><!----><!----><!----><g data-v-423bf9ae="" id="7a6471ce-ec5c-44e9-af10-3bb1b058eb78" fill="black" transform="matrix(5.870841333886128,0,0,5.870841333886128,-0.8219195790892826,-26.2426618533176)"><path d="M9.24 13.79L8.37 13.65L7.83 12.46L4.94 4.54L4.13 4.68L1.62 12.31L1.02 13.69L0.14 13.93L0.20 14.62C0.20 14.62 1.57 14.55 2.09 14.55L3.29 14.55L3.36 13.79L2.38 13.65L2.52 12.77L2.97 11.30L6.05 11.30L6.34 12.14L6.72 13.65L5.70 13.93L5.75 14.62C5.75 14.62 7.32 14.55 7.76 14.55L9.17 14.55ZM4.45 6.75L5.77 10.54L3.22 10.60ZM11.93 7.88L11.66 7.63L11.16 7.63C10.88 7.63 9.87 7.57 9.87 7.57L9.80 8.32L10.86 8.54C10.86 8.54 11.00 9.32 11.00 9.60L11.00 12.63C11.00 12.91 10.86 13.69 10.86 13.69L9.80 13.92L9.87 14.62C9.87 14.62 11.14 14.55 11.42 14.55C12.54 14.55 13.51 14.62 13.51 14.62L13.61 13.79L12.24 13.69C12.24 13.69 12.14 12.91 12.14 12.21L12.14 10.57C12.19 9.25 12.73 8.48 14.01 8.47L14.07 8.47C14.17 8.76 14.27 9.09 14.27 9.17L14.27 9.91L15.08 9.95L15.22 7.64C15.22 7.64 14.78 7.50 14.27 7.50C13.26 7.50 12.56 7.91 12.01 8.81ZM19.24 13.79L18.14 13.69C18.14 13.69 18.05 12.91 18.05 12.21L18.05 10.02C18.05 9.32 18.14 7.88 18.14 7.88L17.88 7.63L17.07 7.63C16.79 7.63 15.78 7.57 15.78 7.57L15.71 8.32L16.77 8.54C16.77 8.54 16.91 9.32 16.91 9.60L16.91 12.63C16.91 12.91 16.77 13.69 16.77 13.69L15.71 13.92L15.78 14.62C15.78 14.62 17.05 14.55 17.33 14.55C18.45 14.55 19.14 14.62 19.14 14.62ZM17.49 4.47C16.95 4.47 16.66 4.84 16.66 5.38C16.66 5.91 16.95 6.27 17.49 6.27C18.02 6.27 18.31 5.91 18.31 5.38C18.31 4.80 18.00 4.47 17.49 4.47ZM22.36 7.50C21.06 7.50 20.09 8.19 20.09 9.37C20.09 11.63 23.63 11.44 23.63 12.91C23.63 13.65 23.14 13.97 22.36 13.97C21.91 13.97 21.50 13.89 21.18 13.64C21.07 13.31 20.97 12.95 20.97 12.81L20.97 12.28L20.16 12.24L20.01 14.14C20.01 14.14 20.93 14.69 22.32 14.69C23.84 14.69 24.78 14.11 24.78 12.64C24.78 10.43 21.21 10.57 21.21 9.14C21.21 8.57 21.66 8.23 22.34 8.23C22.74 8.23 22.99 8.27 23.28 8.40C23.38 8.72 23.48 9.06 23.48 9.20L23.48 9.70L24.29 9.74L24.46 7.74C23.79 7.60 23.03 7.50 22.36 7.50ZM29.72 13.38C29.72 13.38 29.12 13.79 28.62 13.79C28.10 13.79 27.86 13.40 27.86 12.70L27.86 8.39L29.75 8.39L29.82 7.63L27.86 7.63L27.86 6.19L27.37 6.13C27.37 6.13 26.84 7.25 26.73 7.39C26.40 7.59 26.07 7.64 25.61 7.80L25.65 8.39L26.73 8.39L26.73 12.36C26.73 13.90 27.13 14.69 28.46 14.69C29.16 14.69 29.67 14.31 30.11 13.96ZM35.22 14.55C36.34 14.55 37.03 14.62 37.03 14.62L37.13 13.79L36.16 13.69C36.16 13.69 36.02 12.91 36.02 12.21L36.02 10.47C36.02 8.33 35.38 7.50 33.71 7.50C32.87 7.50 32.02 7.62 31.18 7.84L31.33 9.74L32.14 9.70L32.14 9.13L32.24 8.54C32.59 8.37 33.11 8.26 33.57 8.26C34.45 8.26 34.89 8.89 34.89 10.19L34.89 10.65L32.65 11.03C31.39 11.24 30.77 11.89 30.77 12.89C30.77 13.99 31.56 14.69 32.80 14.69C33.71 14.69 34.66 14.15 35.03 13.44ZM34.89 11.37L34.89 12.21C34.75 13.12 33.96 13.79 33.03 13.79C32.37 13.79 32.00 13.38 32.00 12.68C32.00 12.19 32.33 11.84 32.89 11.75Z"></path></g><!----><!----></svg>